# xmcd
#
# Track frame offsets:
# 150
# 16939
# 34997
# 51084
# 63905
# 78508
# 96323
# 115353
# 129875
# 149310
# 164021
# 182295
# 196088
# 212607
# 231286
# 248507
#
# Disc length: 3553 seconds
#
#
# Revision: 0
# Processed by: cddbd v1.5.1PL2 Copyright (c) Steve Scherf et al.
# Submitted via: FreeRIP 2.943 
#
DISCID=d30ddf10
DTITLE=Leandro e Leonardo Especial Vol.1 - Especial Vol. 1
DYEAR=1900
DGENRE=
TTITLE0=Pode Ser Você Meu Grande Amor
TTITLE1=Temporal de Amor
TTITLE2=Quem Será Essa Mulher
TTITLE3=Contradições
TTITLE4=Pense Em Mim
TTITLE5=Em Nome do Amor
TTITLE6=Eu Juro
TTITLE7=Sublime Renúncia
TTITLE8=Talismã
TTITLE9=Entre Tapas e Beijos
TTITLE10=Sonho por Sonho
TTITLE11=Não Aprendi Dizer Adeus
TTITLE12=Esta Noite Foi Maravilhosa
TTITLE13=Desculpe, Mas Eu Vou Chorar
TTITLE14=É Por Você Que Canto
TTITLE15=Solidão
EXTD=
EXTT0=
EXTT1=
EXTT2=
EXTT3=
EXTT4=
EXTT5=
EXTT6=
EXTT7=
EXTT8=
EXTT9=
EXTT10=
EXTT11=
EXTT12=
EXTT13=
EXTT14=
EXTT15=
PLAYORDER=
